<svg xmlns="http://www.w3.org/2000/svg"  viewBox="0 0 24 24" width="96px" height="96px"><path d="M23.395 7.081c-.488-.207-1.053-.002-1.29.472-.224.448-.523.723-.914.838-.612.183-1.343-.052-1.685-.253-.451-.265-.974-.667-1.527-1.092C16.214 5.688 14.018 4 11 4 8.586 4 7.346 5.239 5.293 7.293 4.902 7.684 4.899 8.32 5.29 8.71 5.67 9.092 6.28 9.104 6.672 8.74c.01-.009.02-.019.03-.028.552-.426 4.03-.012 5.55 1.196C14.511 11.703 16.142 13 18 13c2.659 0 4.879-1.741 5.94-4.658C24.121 7.844 23.882 7.291 23.395 7.081zM18.395 14.081c-.488-.207-1.053-.002-1.29.472-.224.448-.523.723-.914.838-.612.18-1.343-.052-1.685-.253-.451-.265-.974-.667-1.527-1.092C11.214 12.688 9.018 11 6 11c-2.414 0-3.654 1.239-5.707 3.293-.391.391-.394 1.027-.003 1.417.38.382.991.395 1.383.03.01-.009.02-.019.03-.028.551-.426 4.031-.012 5.55 1.196C9.511 18.703 11.142 20 13 20c2.659 0 4.879-1.741 5.94-4.658C19.121 14.844 18.882 14.291 18.395 14.081z"/></svg>