<svg xmlns="http://www.w3.org/2000/svg" xmlns:xlink="http://www.w3.org/1999/xlink" viewBox="0,0,256,256" width="96px" height="96px"><defs><linearGradient x1="37.8" y1="43.37" x2="37.8" y2="7.42" gradientUnits="userSpaceOnUse" id="color-1"><stop offset="0" stop-color="#000000"></stop><stop offset="1" stop-color="#000000"></stop></linearGradient><linearGradient x1="6.085" y1="34.801" x2="34.793" y2="7.173" gradientUnits="userSpaceOnUse" id="color-2"><stop offset="0.115" stop-color="#000000"></stop><stop offset="0.257" stop-color="#000000"></stop><stop offset="0.28" stop-color="#000000"></stop><stop offset="0.424" stop-color="#000000"></stop><stop offset="0.491" stop-color="#000000"></stop><stop offset="0.577" stop-color="#000000"></stop><stop offset="0.795" stop-color="#000000"></stop><stop offset="1" stop-color="#000000"></stop></linearGradient></defs><g fill="none" fill-rule="nonzero" stroke="none" stroke-width="1" stroke-linecap="butt" stroke-linejoin="miter" stroke-miterlimit="10" stroke-dasharray="" stroke-dashoffset="0" font-family="none" font-weight="none" font-size="none" text-anchor="none" style="mix-blend-mode: normal"><g transform="scale(5.33333,5.33333)"><path d="M34.176,4.249c0.188,0.092 5.688,2.716 8.374,3.998c0.887,0.423 1.45,1.317 1.45,2.299v26.86c0,0.981 -0.559,1.874 -1.443,2.299c-2.548,1.228 -7.611,3.666 -7.948,3.826c-0.248,0.118 -0.9,0.469 -1.428,0.469c-0.678,0 -1.133,-0.316 -1.58,-0.73l2.399,-7.559v-29.996l-2.254,-1.135c0.482,-0.471 1.15,-0.58 1.545,-0.58c0.362,0 0.657,0.138 0.885,0.249z" fill="url(#color-1)"></path><path d="M9,33.896l25,-19.023v-9.043c0,-1.299 -1.662,-1.808 -2.337,-1.184c-0.655,0.604 -27.005,24.593 -27.005,24.593c-0.9,0.83 -0.849,2.267 0.107,3.032c0,0 1.324,1.232 1.803,1.574c0.736,0.525 1.703,0.585 2.432,0.051z" fill="url(#color-2)"></path><path d="M9,14.104l25,19.054v8.771c0,1.198 -1.42,2.193 -2.399,1.341l-26.943,-24.509c-0.9,-0.83 -0.849,-2.267 0.107,-3.032c0,0 1.324,-1.232 1.803,-1.574c0.736,-0.525 1.703,-0.585 2.432,-0.051z" fill="#000000"></path></g></g></svg>